<svg width="121" height="140" viewBox="0 0 121 140" fill="none" xmlns="http://www.w3.org/2000/svg">
<path d="M2.49278 35.506L60.5158 2.024M2.49278 35.506C2.27378 35.632 2.13878 35.865 2.13878 36.118V104.145C2.13891 104.269 2.17189 104.392 2.2344 104.499C2.29691 104.607 2.38673 104.696 2.49478 104.758L60.5178 137.98C60.6244 138.041 60.7452 138.074 60.8681 138.074C60.9911 138.074 61.112 138.042 61.2188 137.981L119.504 104.757C119.612 104.695 119.702 104.606 119.765 104.498C119.828 104.39 119.861 104.267 119.861 104.142V36.12C119.861 35.867 119.725 35.634 119.506 35.507L61.2208 2.024M2.49278 35.506L1.92578 34.523M60.5158 2.024L59.9458 1.037M60.5158 2.024C60.623 1.96232 60.7446 1.92986 60.8683 1.92986C60.992 1.92986 61.1135 1.96232 61.2208 2.024M61.2208 2.024L61.7888 1.035" stroke="#1358DB" stroke-width="2.278"/>
<path d="M59.7671 8.308L8.56508 38.01C8.22765 38.2055 7.94751 38.4862 7.7527 38.8241C7.55789 39.1619 7.45526 39.545 7.45508 39.935V100.3C7.45508 101.096 7.88108 101.832 8.57108 102.229L59.7741 131.699C60.4601 132.094 61.3041 132.095 61.9911 131.701L113.425 102.229C113.765 102.034 114.048 101.753 114.244 101.413C114.441 101.074 114.544 100.689 114.544 100.297V39.937C114.544 39.143 114.12 38.407 113.432 38.01L61.9971 8.306C61.658 8.11019 61.2733 8.00726 60.8818 8.00762C60.4903 8.00797 60.1058 8.11158 59.7671 8.308Z" fill="#1358DB" stroke="#1358DB" stroke-width="0.759"/>
<path d="M43.7951 73.787H47.6041C48.2741 73.787 48.8791 73.847 49.4171 73.969C49.9561 74.089 50.4171 74.288 50.8021 74.562C51.1871 74.837 51.4841 75.189 51.6921 75.618C51.9021 76.046 52.0061 76.563 52.0061 77.168C52.0061 77.816 51.8851 78.36 51.6431 78.799C51.4011 79.239 51.0721 79.596 50.6531 79.871C50.2141 80.148 49.7286 80.3434 49.2201 80.448C48.6701 80.568 48.0871 80.629 47.4721 80.629H45.8721V85.46H43.7951V73.787ZM47.3241 78.882C47.6641 78.882 47.9891 78.86 48.2961 78.816C48.6041 78.761 48.8791 78.673 49.1211 78.552C49.3621 78.42 49.5551 78.244 49.6981 78.024C49.8411 77.804 49.9121 77.519 49.9121 77.167C49.9121 76.827 49.8411 76.552 49.6981 76.343C49.5556 76.1236 49.3562 75.947 49.1211 75.832C48.8901 75.711 48.6211 75.634 48.3131 75.601C48.0075 75.5564 47.699 75.5343 47.3901 75.535H45.8731V78.882H47.3241ZM53.8581 73.787H57.1061L60.1391 82.08H60.1891L63.1891 73.787H66.4541V85.46H64.3931V76.08H64.3601L60.8151 85.46H59.3651L55.8701 76.08H55.8371V85.46H53.8581V73.787ZM77.4491 76.524C77.146 76.1102 76.7276 75.795 76.2461 75.618C75.7859 75.427 75.2933 75.3262 74.7951 75.321C74.1901 75.321 73.6411 75.431 73.1461 75.651C72.6511 75.871 72.2231 76.173 71.8601 76.557C71.5025 76.9516 71.2229 77.4103 71.0361 77.909C70.8454 78.449 70.7506 79.0183 70.7561 79.591C70.7561 80.228 70.8491 80.811 71.0361 81.338C71.2231 81.866 71.4861 82.322 71.8271 82.707C72.1791 83.08 72.5971 83.372 73.0801 83.581C73.5969 83.7962 74.1524 83.9028 74.7121 83.894C75.3391 83.894 75.8941 83.773 76.3771 83.531C76.8392 83.2966 77.2401 82.9576 77.5481 82.541L79.2131 83.712C78.704 84.3546 78.0558 84.8733 77.3171 85.229C76.5701 85.581 75.6961 85.757 74.6961 85.757C73.7841 85.757 72.9431 85.608 72.1731 85.312C71.442 85.0218 70.7752 84.5902 70.2111 84.042C69.6575 83.4858 69.2206 82.8245 68.9261 82.097C68.6181 81.338 68.4641 80.503 68.4641 79.591C68.4641 78.657 68.6241 77.816 68.9421 77.068C69.2504 76.3404 69.7048 75.6838 70.2771 75.139C70.861 74.6039 71.5447 74.1893 72.2891 73.919C73.0921 73.6276 73.9409 73.4827 74.7951 73.491C75.1681 73.491 75.5591 73.529 75.9651 73.606C76.3721 73.672 76.7621 73.782 77.1351 73.936C77.5101 74.079 77.8611 74.26 78.1911 74.48C78.5211 74.7 78.8011 74.963 79.0311 75.271L77.4491 76.524ZM84.1161 73.406H85.0461L85.9131 75.779H85.9271L86.7861 73.406H87.7201V76.746H87.1301V74.062H87.1201L86.1061 76.746H85.6911L84.6911 74.062H84.6811V76.746H84.1161V73.406ZM82.1101 73.925H81.0861V73.406H83.7281V73.926H82.7041V76.746H82.1101V73.925ZM60.7661 119.159L57.5661 117.579L60.7661 121.466L67.6351 113.909L60.7661 119.159ZM34.7031 93.93H36.1451C36.3991 93.93 36.6311 93.956 36.8401 94.01C37.0501 94.058 37.2281 94.136 37.3741 94.243C37.5211 94.35 37.6351 94.486 37.7151 94.651C37.7951 94.815 37.8351 95.014 37.8351 95.245C37.8351 95.481 37.7911 95.684 37.7021 95.853C37.6171 96.023 37.4971 96.16 37.3421 96.267C37.1756 96.3804 36.9894 96.4618 36.7931 96.507C36.5841 96.557 36.3571 96.581 36.1131 96.581H35.3641V98.658H34.7031V93.93ZM35.3641 96.02H36.0651C36.2251 96.02 36.3731 96.007 36.5061 95.98C36.6441 95.949 36.7621 95.904 36.8601 95.846C36.9611 95.7834 37.0431 95.6945 37.0972 95.5888C37.1513 95.483 37.1755 95.3645 37.1671 95.246C37.1717 95.1288 37.145 95.0125 37.0898 94.909C37.0346 94.8055 36.9529 94.7186 36.8531 94.657C36.75 94.5913 36.6341 94.5484 36.5131 94.531C36.3701 94.5034 36.2248 94.49 36.0791 94.491H35.3641V96.02ZM38.3351 96.174C38.3336 95.9464 38.3246 95.719 38.3081 95.492H38.9031C38.9201 95.6695 38.9291 95.8477 38.9301 96.026H38.9501C39.0391 95.84 39.1681 95.69 39.3371 95.579C39.5111 95.463 39.7041 95.405 39.9181 95.405C40.0013 95.4034 40.0843 95.4125 40.1651 95.432L40.1391 96.013C40.0448 95.9903 39.9481 95.9792 39.8511 95.98C39.7228 95.9765 39.5954 96.0023 39.4786 96.0555C39.3618 96.1087 39.2587 96.1879 39.1771 96.287C39.1038 96.385 39.0495 96.496 39.0171 96.614C38.9811 96.734 38.9631 96.862 38.9631 96.995V98.658H38.3351V96.174ZM43.8441 97.069C43.8441 97.314 43.7991 97.539 43.7101 97.743C43.6283 97.9443 43.5057 98.1264 43.3501 98.278C43.1938 98.4279 43.0097 98.5458 42.8081 98.625C42.5991 98.705 42.3741 98.745 42.1341 98.745C41.8941 98.745 41.6691 98.705 41.4591 98.625C41.2491 98.54 41.0691 98.425 40.9191 98.278C40.766 98.1241 40.6435 97.9426 40.5581 97.743C40.4717 97.5289 40.4286 97.2999 40.4311 97.069C40.4311 96.824 40.4731 96.601 40.5581 96.401C40.6412 96.2024 40.764 96.0228 40.9192 95.8735C41.0743 95.7242 41.2584 95.6084 41.4601 95.533C41.6691 95.448 41.8931 95.405 42.1341 95.405C42.3741 95.405 42.5991 95.448 42.8081 95.532C43.0099 95.6075 43.1941 95.7235 43.3492 95.873C43.5044 96.0225 43.6272 96.2022 43.7101 96.401C43.8001 96.601 43.8441 96.824 43.8441 97.069ZM43.1891 97.069C43.1891 96.917 43.1651 96.772 43.1161 96.634C43.074 96.5004 43.0047 96.3769 42.9126 96.2712C42.8206 96.1656 42.7077 96.0801 42.5811 96.02C42.4412 95.9552 42.2883 95.9231 42.1341 95.926C41.9859 95.9202 41.8384 95.9485 41.7028 96.0086C41.5672 96.0688 41.4473 96.1592 41.3521 96.273C41.2609 96.3792 41.1907 96.5017 41.1451 96.634C41.1 96.7746 41.0774 96.9214 41.0781 97.069C41.0781 97.22 41.1011 97.365 41.1451 97.503C41.1951 97.641 41.2631 97.763 41.3521 97.87C41.4419 97.9773 41.5538 98.064 41.6801 98.124C41.8131 98.186 41.9651 98.217 42.1341 98.217C42.3031 98.217 42.4521 98.187 42.5811 98.124C42.71 98.0652 42.8241 97.9785 42.9151 97.87C43.0051 97.763 43.0711 97.64 43.1151 97.503C43.1651 97.365 43.1891 97.22 43.1891 97.069ZM47.2391 98.157C47.1191 98.349 46.9541 98.496 46.7451 98.598C46.5401 98.696 46.3241 98.745 46.0971 98.745C45.8521 98.745 45.6321 98.703 45.4361 98.618C45.2463 98.5335 45.0758 98.411 44.9351 98.258C44.7947 98.1022 44.686 97.9204 44.6151 97.723C44.5385 97.5135 44.4999 97.2921 44.5011 97.069C44.5011 96.837 44.5381 96.621 44.6141 96.421C44.6901 96.216 44.7971 96.038 44.9341 95.886C45.0771 95.735 45.2461 95.616 45.4421 95.532C45.6381 95.448 45.8541 95.405 46.0901 95.405C46.3481 95.405 46.5731 95.461 46.7651 95.572C46.9561 95.679 47.1081 95.811 47.2191 95.966H47.2321V93.61H47.8601V98.66H47.2521V98.158L47.2391 98.157ZM45.1551 97.069C45.1551 97.216 45.1771 97.358 45.2221 97.496C45.2633 97.6309 45.3312 97.756 45.422 97.8639C45.5127 97.9719 45.6243 98.0603 45.7501 98.124C45.8791 98.186 46.0301 98.217 46.2041 98.217C46.3641 98.217 46.5091 98.187 46.6381 98.124C46.7721 98.061 46.8851 97.979 46.9781 97.877C47.0721 97.77 47.1431 97.647 47.1921 97.509C47.2461 97.371 47.2721 97.227 47.2721 97.075C47.2721 96.924 47.2461 96.779 47.1921 96.641C47.1448 96.5062 47.0722 96.3816 46.9781 96.274C46.8817 96.1638 46.7626 96.0757 46.629 96.0157C46.4955 95.9556 46.3506 95.9251 46.2041 95.926C46.0559 95.9201 45.9083 95.9484 45.7728 96.0085C45.6372 96.0687 45.5172 96.1592 45.4221 96.273C45.3323 96.3816 45.2644 96.5066 45.2221 96.641C45.1771 96.779 45.1551 96.921 45.1551 97.069ZM51.1851 98.659C51.1688 98.4858 51.1597 98.312 51.1581 98.138H51.1451C51.0537 98.3187 50.912 98.469 50.7371 98.571C50.5485 98.6874 50.3307 98.7477 50.1091 98.745C49.9051 98.745 49.7271 98.712 49.5751 98.645C49.4338 98.5823 49.3084 98.4887 49.2081 98.371C49.1125 98.247 49.0401 98.1067 48.9941 97.957C48.9486 97.7939 48.926 97.6253 48.9271 97.456V95.492H49.5551V97.242C49.5551 97.372 49.5641 97.496 49.5821 97.616C49.6041 97.732 49.6421 97.834 49.6951 97.924C49.7491 98.012 49.8221 98.084 49.9151 98.137C50.0264 98.1946 50.1509 98.2222 50.2761 98.217C50.3933 98.2209 50.5097 98.1976 50.6164 98.149C50.7231 98.1004 50.8171 98.0279 50.8911 97.937C51.0471 97.745 51.1251 97.492 51.1251 97.175V95.492H51.7531V97.977C51.7541 98.2042 51.7628 98.4314 51.7791 98.658L51.1851 98.659ZM55.0591 96.294C54.9837 96.184 54.8801 96.0963 54.7591 96.04C54.6247 95.9729 54.4769 95.9369 54.3266 95.9346C54.1764 95.9324 54.0275 95.964 53.8911 96.027C53.7673 96.0879 53.6576 96.1741 53.5691 96.28C53.478 96.3862 53.4078 96.5087 53.3621 96.641C53.3175 96.7813 53.2952 96.9278 53.2961 97.075C53.2961 97.227 53.3181 97.371 53.3621 97.509C53.4121 97.647 53.4801 97.769 53.5691 97.877C53.6649 97.9859 53.7832 98.0727 53.9158 98.1314C54.0484 98.1901 54.1921 98.2193 54.3371 98.217C54.4971 98.217 54.6431 98.187 54.7721 98.124C54.8996 98.0662 55.0116 97.9792 55.0991 97.87L55.5191 98.25C55.3861 98.407 55.2191 98.53 55.0191 98.618C54.8191 98.703 54.5911 98.745 54.3381 98.745C54.0931 98.745 53.8661 98.705 53.6561 98.625C53.4583 98.5491 53.2769 98.4357 53.1221 98.291C52.9685 98.1404 52.8462 97.961 52.7621 97.763C52.6745 97.5444 52.631 97.3105 52.6341 97.075C52.6341 96.825 52.6771 96.599 52.7611 96.394C52.8415 96.1959 52.962 96.0165 53.115 95.8672C53.268 95.7178 53.4501 95.6017 53.6501 95.526C53.8591 95.446 54.0841 95.406 54.3241 95.406C54.5471 95.406 54.7671 95.45 54.9861 95.539C55.2081 95.629 55.3841 95.757 55.5131 95.926L55.0591 96.294ZM57.6921 96.007H56.8501V97.657C56.8501 97.847 56.8861 97.986 56.9571 98.07C57.0281 98.15 57.1421 98.19 57.2971 98.19C57.3551 98.19 57.4171 98.184 57.4851 98.17C57.5475 98.1581 57.6081 98.1379 57.6651 98.11L57.6851 98.625C57.6091 98.651 57.5251 98.672 57.4311 98.685C57.3389 98.7032 57.2451 98.7122 57.1511 98.712C56.8521 98.712 56.6231 98.629 56.4631 98.464C56.3071 98.3 56.2291 98.053 56.2291 97.724V96.007H55.6211V95.492H56.2291V94.584H56.8491V95.492H57.6921V96.007ZM62.4881 97.563H62.5011L63.8971 93.929H64.9261V98.659H64.2641V94.704H64.2511L62.6811 98.658H62.2611L60.6981 94.704H60.6841V98.658H60.0441V93.93H61.0721L62.4881 97.563ZM68.0141 96.608C68.0141 96.372 67.9421 96.198 67.8001 96.087C67.6581 95.971 67.4681 95.913 67.2321 95.913C67.0541 95.913 66.8851 95.949 66.7251 96.02C66.5784 96.0806 66.4446 96.1689 66.3311 96.28L65.9971 95.88C66.1521 95.733 66.3421 95.617 66.5641 95.532C66.7911 95.448 67.0341 95.405 67.2921 95.405C67.5191 95.405 67.7151 95.439 67.8801 95.505C68.0501 95.568 68.1871 95.655 68.2941 95.766C68.4011 95.877 68.4811 96.009 68.5341 96.16C68.5881 96.312 68.6141 96.474 68.6141 96.648V98.03C68.6141 98.137 68.6171 98.25 68.6211 98.371C68.6311 98.487 68.6441 98.583 68.6611 98.658H68.0941C68.0586 98.5093 68.0405 98.3569 68.0401 98.204H68.0201C67.9051 98.374 67.7581 98.504 67.5801 98.598C67.4061 98.692 67.1991 98.738 66.9581 98.738C66.8341 98.738 66.7021 98.721 66.5641 98.685C66.4329 98.6549 66.3085 98.6006 66.1971 98.525C66.0833 98.4464 65.9877 98.344 65.9171 98.225C65.8412 98.0831 65.804 97.9238 65.8091 97.763C65.8091 97.523 65.8741 97.333 66.0031 97.195C66.1331 97.053 66.3021 96.946 66.5111 96.875C66.7211 96.799 66.9561 96.75 67.2191 96.728C67.4821 96.706 67.7471 96.695 68.0141 96.695V96.608ZM67.8601 97.148C67.7041 97.148 67.5421 97.155 67.3731 97.168C67.2081 97.182 67.0561 97.208 66.9181 97.248C66.7947 97.2828 66.6806 97.3446 66.5841 97.429C66.5399 97.4694 66.5051 97.519 66.4822 97.5743C66.4592 97.6295 66.4486 97.6892 66.4511 97.749C66.4511 97.843 66.4691 97.921 66.5041 97.984C66.5441 98.046 66.5951 98.097 66.6581 98.137C66.7216 98.1776 66.7917 98.207 66.8651 98.224C66.9411 98.237 67.0191 98.244 67.0991 98.244C67.3921 98.244 67.6171 98.157 67.7731 97.984C67.9331 97.806 68.0131 97.583 68.0131 97.316V97.149L67.8601 97.148ZM70.2311 95.492C70.2483 95.6648 70.2573 95.8383 70.2581 96.012H70.2781C70.319 95.9265 70.3729 95.8478 70.4381 95.779C70.5091 95.704 70.5901 95.639 70.6781 95.586C70.7681 95.528 70.8661 95.483 70.9721 95.452C71.0791 95.421 71.1911 95.405 71.3071 95.405C71.5111 95.405 71.6871 95.441 71.8341 95.512C71.976 95.5748 72.1018 95.6687 72.2024 95.7867C72.303 95.9048 72.3757 96.044 72.4151 96.194C72.4651 96.349 72.4891 96.516 72.4891 96.694V98.658H71.8611V96.902C71.8611 96.772 71.8501 96.65 71.8271 96.534C71.8121 96.4257 71.7761 96.3215 71.7211 96.227C71.6677 96.1377 71.5918 96.064 71.5011 96.013C71.3895 95.9553 71.2647 95.9277 71.1391 95.933C71.0216 95.9305 70.9051 95.9551 70.7987 96.0049C70.6922 96.0547 70.5986 96.1283 70.5251 96.22C70.3691 96.407 70.2911 96.659 70.2911 96.975V98.658H69.6631V96.174C69.6622 95.9464 69.6535 95.719 69.6371 95.492H70.2311ZM75.5211 96.608C75.5211 96.372 75.4501 96.198 75.3081 96.087C75.1651 95.971 74.9761 95.913 74.7401 95.913C74.5621 95.913 74.3921 95.949 74.2321 96.02C74.0854 96.0806 73.9516 96.1689 73.8381 96.28L73.5041 95.88C73.6601 95.733 73.8491 95.617 74.0721 95.532C74.2991 95.448 74.5421 95.405 74.8001 95.405C75.0271 95.405 75.2231 95.439 75.3881 95.505C75.5571 95.568 75.6951 95.655 75.8021 95.766C75.9091 95.877 75.9891 96.009 76.0421 96.16C76.0961 96.312 76.1221 96.474 76.1221 96.648V98.03C76.1221 98.137 76.1251 98.25 76.1291 98.371C76.1381 98.487 76.1511 98.583 76.1691 98.658H75.6011C75.566 98.5092 75.5482 98.3569 75.5481 98.204H75.5281C75.4121 98.374 75.2651 98.504 75.0881 98.598C74.9131 98.692 74.7061 98.738 74.4661 98.738C74.3331 98.737 74.2007 98.7192 74.0721 98.685C73.9406 98.655 73.8158 98.6008 73.7041 98.525C73.5903 98.4464 73.4947 98.344 73.4241 98.225C73.3485 98.0831 73.3116 97.9237 73.3171 97.763C73.3171 97.523 73.3821 97.333 73.5111 97.195C73.6401 97.053 73.8091 96.946 74.0181 96.875C74.2281 96.799 74.4641 96.75 74.7261 96.728C74.9891 96.706 75.2541 96.695 75.5211 96.695V96.608ZM75.3681 97.148C75.2053 97.1483 75.0425 97.155 74.8801 97.168C74.7151 97.182 74.5641 97.208 74.4261 97.248C74.3027 97.2827 74.1886 97.3446 74.0921 97.429C74.0478 97.4693 74.0128 97.5188 73.9896 97.5741C73.9665 97.6294 73.9557 97.6891 73.9581 97.749C73.9581 97.843 73.9761 97.921 74.0121 97.984C74.0521 98.046 74.1031 98.097 74.1651 98.137C74.2287 98.1776 74.2987 98.207 74.3721 98.224C74.4481 98.237 74.5261 98.244 74.6061 98.244C74.9001 98.244 75.1251 98.157 75.2811 97.984C75.4411 97.806 75.5211 97.583 75.5211 97.316V97.149L75.3681 97.148ZM77.4181 99.199C77.5561 99.355 77.7281 99.479 77.9321 99.573C78.1421 99.667 78.3551 99.713 78.5741 99.713C78.7831 99.713 78.9591 99.683 79.1011 99.62C79.2341 99.5688 79.3513 99.4836 79.4411 99.373C79.5323 99.2672 79.5968 99.1409 79.6291 99.005C79.67 98.8551 79.6902 98.7004 79.6891 98.545V98.137H79.6761C79.56 98.3156 79.3952 98.4572 79.2011 98.545C79.0011 98.638 78.7871 98.685 78.5611 98.685C78.3201 98.685 78.0991 98.643 77.8991 98.558C77.71 98.4782 77.5394 98.36 77.3981 98.211C77.259 98.0618 77.1503 97.8869 77.0781 97.696C77.0016 97.4914 76.963 97.2745 76.9641 97.056C76.9641 96.828 77.0021 96.614 77.0771 96.414C77.1531 96.214 77.2601 96.04 77.3981 95.893C77.5467 95.7363 77.7261 95.612 77.925 95.528C78.124 95.444 78.3382 95.4021 78.5541 95.405C78.7811 95.405 78.9971 95.455 79.2011 95.552C79.4111 95.65 79.5751 95.799 79.6961 96H79.7091V95.492H80.3171V98.498C80.3171 98.729 80.2871 98.95 80.2301 99.159C80.1721 99.373 80.0741 99.559 79.9361 99.72C79.7891 99.8914 79.6042 100.026 79.3961 100.114C79.1721 100.212 78.8961 100.261 78.5661 100.261C78.2813 100.259 77.999 100.207 77.7321 100.108C77.4679 100.017 77.2248 99.8739 77.0171 99.687L77.4181 99.199ZM77.6121 97.042C77.6021 97.3257 77.7 97.6026 77.8861 97.817C77.9791 97.919 78.0901 98.001 78.2201 98.064C78.3491 98.126 78.4961 98.157 78.6601 98.157C78.8201 98.157 78.9681 98.128 79.1011 98.07C79.2351 98.013 79.3481 97.935 79.4411 97.837C79.5351 97.734 79.6071 97.617 79.6561 97.483C79.7636 97.2033 79.7636 96.8937 79.6561 96.614C79.6082 96.482 79.5333 96.3614 79.4361 96.26C79.3406 96.1565 79.224 96.0747 79.0941 96.02C78.9585 95.9561 78.8101 95.9239 78.6601 95.926C78.4961 95.926 78.3491 95.958 78.2201 96.02C78.0938 96.0763 77.9806 96.1582 77.8875 96.2604C77.7944 96.3626 77.7234 96.483 77.6791 96.614C77.6337 96.7521 77.6111 96.8967 77.6121 97.042ZM83.7091 96.795C83.7058 96.6761 83.6832 96.5586 83.6421 96.447C83.6094 96.3399 83.5528 96.2416 83.4766 96.1595C83.4004 96.0774 83.3065 96.0136 83.2021 95.973C83.0816 95.9213 82.9512 95.8964 82.8201 95.9C82.6899 95.8993 82.5608 95.9241 82.4401 95.973C82.3268 96.0157 82.2223 96.0792 82.1321 96.16C82.0481 96.24 81.9771 96.336 81.9191 96.447C81.865 96.5556 81.8331 96.6739 81.8251 96.795H83.7091ZM84.3431 97.049V97.155C84.3434 97.1908 84.3414 97.2265 84.3371 97.262H81.8251C81.8301 97.396 81.8591 97.522 81.9121 97.643C81.9693 97.7578 82.0461 97.8617 82.1391 97.95C82.2331 98.035 82.3391 98.102 82.4591 98.15C82.5841 98.2 82.7161 98.224 82.8541 98.224C83.0681 98.224 83.2521 98.177 83.4081 98.084C83.5641 97.99 83.6861 97.877 83.7751 97.744L84.2161 98.097C84.0471 98.32 83.8461 98.485 83.6161 98.591C83.3881 98.694 83.1341 98.745 82.8541 98.745C82.6141 98.745 82.3911 98.705 82.1861 98.625C81.9895 98.5502 81.81 98.4366 81.6581 98.291C81.5085 98.1398 81.3905 97.9603 81.3111 97.763C81.2243 97.5466 81.1811 97.3152 81.1841 97.082C81.1841 96.837 81.2241 96.612 81.3041 96.407C81.3804 96.209 81.4969 96.029 81.6463 95.8784C81.7957 95.7278 81.9748 95.6099 82.1721 95.532C82.3721 95.448 82.5891 95.405 82.8201 95.405C83.0521 95.405 83.2611 95.443 83.4481 95.519C83.6401 95.595 83.8001 95.704 83.9291 95.846C84.0631 95.989 84.1651 96.162 84.2361 96.367C84.3081 96.567 84.3431 96.795 84.3431 97.048V97.049ZM85.2201 96.173C85.2186 95.9461 85.2096 95.7193 85.1931 95.493H85.7881C85.8051 95.6705 85.8141 95.8487 85.8151 96.027H85.8351C85.9199 95.8445 86.0539 95.6894 86.2221 95.579C86.3951 95.463 86.5891 95.405 86.8021 95.405C86.8856 95.4033 86.969 95.4124 87.0501 95.432L87.0231 96.013C86.9292 95.9903 86.8328 95.9793 86.7361 95.98C86.6077 95.9763 86.48 96.0021 86.3631 96.0553C86.2461 96.1085 86.1428 96.1878 86.0611 96.287C85.9878 96.385 85.9335 96.496 85.9011 96.614C85.8661 96.734 85.8481 96.862 85.8481 96.995V98.658H85.2201V96.174V96.173ZM46.5971 104.923C46.4101 105.177 46.1671 105.384 45.8691 105.545C45.5711 105.701 45.2121 105.778 44.7941 105.778C44.4341 105.778 44.0991 105.718 43.7921 105.598C43.4987 105.479 43.2311 105.305 43.0041 105.084C42.7835 104.857 42.609 104.589 42.4901 104.296C42.363 103.975 42.2995 103.632 42.3031 103.287C42.3031 102.918 42.3651 102.581 42.4901 102.279C42.6103 101.984 42.7905 101.717 43.0192 101.495C43.248 101.272 43.5204 101.1 43.8191 100.989C44.4517 100.748 45.1513 100.75 45.7821 100.996C45.9341 101.058 46.0721 101.136 46.1971 101.23C46.3211 101.319 46.4281 101.424 46.5171 101.544L45.9971 101.945C45.8683 101.774 45.6979 101.638 45.5021 101.551C45.2913 101.443 45.0578 101.388 44.8211 101.39C44.5635 101.386 44.3082 101.439 44.0731 101.544C43.8593 101.639 43.6678 101.777 43.5111 101.951C43.3534 102.129 43.2312 102.335 43.1511 102.559C43.0655 102.792 43.0224 103.039 43.0241 103.287C43.0241 103.554 43.0641 103.804 43.1441 104.035C43.2291 104.267 43.3471 104.469 43.4981 104.643C43.6634 104.822 43.8653 104.964 44.0901 105.059C44.3149 105.153 44.5574 105.198 44.8011 105.191C45.0681 105.191 45.3111 105.137 45.5291 105.03C45.7465 104.924 45.9325 104.763 46.0691 104.563L46.5971 104.923ZM49.4781 103.795C49.4747 103.676 49.4521 103.559 49.4111 103.447C49.3783 103.34 49.3217 103.242 49.2455 103.16C49.1693 103.077 49.0755 103.014 48.9711 102.973C48.8509 102.921 48.7209 102.897 48.5901 102.9C48.4596 102.899 48.3301 102.924 48.2091 102.973C48.0963 103.016 47.9922 103.08 47.9021 103.16C47.8171 103.24 47.7461 103.336 47.6881 103.447C47.6341 103.556 47.6021 103.674 47.5941 103.795H49.4781ZM50.1121 104.049V104.155C50.1124 104.191 50.1104 104.227 50.1061 104.262H47.5941C47.5991 104.396 47.6281 104.523 47.6811 104.643C47.7391 104.759 47.8151 104.861 47.9081 104.95C48.0021 105.035 48.1081 105.102 48.2291 105.151C48.3541 105.2 48.4851 105.224 48.6231 105.224C48.8371 105.224 49.0221 105.177 49.1771 105.084C49.3331 104.99 49.4561 104.877 49.5451 104.743L49.9851 105.097C49.8161 105.32 49.6161 105.485 49.3851 105.591C49.1452 105.697 48.8852 105.749 48.6231 105.745C48.3831 105.745 48.1601 105.705 47.9551 105.625C47.7589 105.55 47.5797 105.436 47.4281 105.291C47.2782 105.14 47.1598 104.96 47.0801 104.763C46.9933 104.547 46.9502 104.315 46.9531 104.082C46.9531 103.837 46.9931 103.612 47.0731 103.407C47.1492 103.209 47.2657 103.029 47.4151 102.878C47.5646 102.728 47.7437 102.61 47.9411 102.532C48.1421 102.448 48.3581 102.405 48.5901 102.405C48.8211 102.405 49.0301 102.443 49.2171 102.519C49.4091 102.595 49.5691 102.704 49.6981 102.846C49.8321 102.989 49.9341 103.162 50.0061 103.367C50.0761 103.568 50.1121 103.795 50.1121 104.049ZM50.9891 103.174C50.9876 102.946 50.9786 102.719 50.9621 102.492H51.5571C51.5741 102.67 51.5832 102.848 51.5841 103.027H51.6041C51.6889 102.845 51.8229 102.689 51.9911 102.579C52.1651 102.463 52.3581 102.405 52.5721 102.405C52.6701 102.405 52.7521 102.414 52.8191 102.432L52.7921 103.013C52.6981 102.99 52.6018 102.979 52.5051 102.98C52.3687 102.977 52.2335 103.007 52.1111 103.067C52.0025 103.118 51.9068 103.194 51.8311 103.287C51.758 103.385 51.7038 103.496 51.6711 103.614C51.6349 103.738 51.6167 103.866 51.6171 103.995V105.658H50.9891V103.174ZM54.8801 103.007H54.0391V104.656C54.0391 104.848 54.0741 104.986 54.1461 105.07C54.2161 105.151 54.3301 105.191 54.4861 105.191C54.5441 105.191 54.6061 105.184 54.6731 105.171C54.7354 105.158 54.7958 105.138 54.8531 105.111L54.8731 105.625C54.791 105.654 54.7063 105.674 54.6201 105.685C54.5301 105.703 54.4371 105.712 54.3401 105.712C54.0401 105.712 53.8121 105.629 53.6511 105.465C53.4951 105.3 53.4171 105.053 53.4171 104.723V103.007H52.8101V102.492H53.4171V101.584H54.0391V102.492H54.8801V103.007ZM56.1631 105.658H55.5361V102.492H56.1631V105.658ZM56.2701 101.35C56.2715 101.404 56.2608 101.458 56.2389 101.508C56.2169 101.557 56.1842 101.602 56.1431 101.637C56.104 101.674 56.0579 101.704 56.0075 101.723C55.957 101.743 55.9032 101.752 55.8491 101.751C55.7402 101.753 55.6348 101.712 55.5561 101.637C55.5176 101.6 55.4871 101.555 55.4664 101.506C55.4458 101.457 55.4355 101.404 55.4361 101.35C55.4361 101.234 55.4761 101.139 55.5561 101.063C55.5942 101.024 55.6399 100.993 55.6902 100.973C55.7406 100.952 55.7947 100.942 55.8491 100.943C55.9037 100.942 55.958 100.952 56.0085 100.973C56.0591 100.993 56.1049 101.024 56.1431 101.063C56.1841 101.099 56.2168 101.143 56.2388 101.192C56.2607 101.242 56.2714 101.296 56.2701 101.35ZM58.7471 103.007H58.0121V105.658H57.3841V103.007H56.7561V102.492H57.3841V101.831C57.3841 101.644 57.4041 101.473 57.4441 101.317C57.4891 101.156 57.5581 101.018 57.6511 100.903C57.7491 100.787 57.8711 100.696 58.0191 100.629C58.1701 100.562 58.3531 100.529 58.5661 100.529C58.7181 100.529 58.8491 100.544 58.9611 100.575L58.8871 101.116C58.8386 101.103 58.7895 101.092 58.7401 101.083C58.685 101.074 58.6291 101.069 58.5731 101.07C58.471 101.066 58.3696 101.088 58.2791 101.136C58.209 101.175 58.1511 101.233 58.1121 101.303C58.0704 101.38 58.0432 101.464 58.0321 101.551C58.0185 101.644 58.0118 101.737 58.0121 101.831V102.492H58.7471V103.007ZM59.9591 105.658H59.3321V102.492H59.9591V105.658ZM60.0661 101.35C60.0675 101.404 60.0568 101.458 60.0349 101.508C60.0129 101.557 59.9802 101.602 59.9391 101.637C59.8604 101.712 59.755 101.753 59.6461 101.751C59.592 101.752 59.5382 101.743 59.4878 101.723C59.4373 101.704 59.3912 101.674 59.3521 101.637C59.3136 101.6 59.2831 101.555 59.2624 101.506C59.2418 101.457 59.2315 101.404 59.2321 101.35C59.2321 101.234 59.2721 101.139 59.3521 101.063C59.3903 101.024 59.4361 100.993 59.4867 100.973C59.5373 100.952 59.5915 100.942 59.6461 100.943C59.7007 100.942 59.755 100.952 59.8055 100.973C59.8561 100.993 59.9019 101.024 59.9401 101.063C59.981 101.099 60.0134 101.143 60.0352 101.192C60.057 101.242 60.0675 101.296 60.0661 101.35ZM63.2711 103.294C63.1958 103.184 63.0921 103.096 62.9711 103.04C62.8369 102.972 62.689 102.936 62.5386 102.934C62.3883 102.931 62.2393 102.963 62.1031 103.027C61.9794 103.088 61.8697 103.174 61.7811 103.28C61.6905 103.386 61.6206 103.509 61.5751 103.641C61.5302 103.781 61.5076 103.928 61.5081 104.075C61.5081 104.227 61.5301 104.371 61.5741 104.509C61.6241 104.647 61.6931 104.77 61.7821 104.877C61.8711 104.979 61.9801 105.062 62.1091 105.124C62.2381 105.186 62.3851 105.217 62.5491 105.217C62.6993 105.219 62.8481 105.188 62.9841 105.124C63.1117 105.066 63.2238 104.979 63.3111 104.87L63.7311 105.251C63.5981 105.407 63.4311 105.529 63.2311 105.618C63.015 105.706 62.7834 105.749 62.5501 105.745C62.3051 105.745 62.0781 105.705 61.8681 105.625C61.6703 105.549 61.489 105.436 61.3341 105.291C61.1805 105.14 61.0582 104.961 60.9741 104.763C60.8865 104.544 60.843 104.311 60.8461 104.075C60.8461 103.826 60.8891 103.599 60.9731 103.394C61.0535 103.196 61.174 103.017 61.327 102.867C61.48 102.718 61.6621 102.602 61.8621 102.526C62.0711 102.446 62.2961 102.405 62.5361 102.405C62.7591 102.405 62.9791 102.45 63.1971 102.539C63.4201 102.628 63.5961 102.757 63.7251 102.926L63.2711 103.294ZM66.3241 103.608C66.3241 103.372 66.2541 103.198 66.1111 103.087C65.9681 102.971 65.7791 102.913 65.5431 102.913C65.3681 102.912 65.195 102.949 65.0351 103.02C64.8886 103.081 64.7549 103.169 64.6411 103.28L64.3071 102.88C64.4717 102.728 64.6647 102.609 64.8751 102.532C65.1021 102.448 65.3451 102.405 65.6031 102.405C65.8301 102.405 66.0261 102.439 66.1911 102.506C66.3601 102.568 66.4981 102.655 66.6051 102.766C66.7121 102.877 66.7921 103.009 66.8451 103.16C66.8991 103.312 66.9251 103.474 66.9251 103.648V105.03C66.9251 105.137 66.9281 105.251 66.9321 105.371C66.9411 105.487 66.9541 105.583 66.9721 105.658H66.4051C66.3696 105.509 66.3515 105.357 66.3511 105.204H66.3311C66.2194 105.37 66.0682 105.505 65.8911 105.598C65.7161 105.692 65.5091 105.738 65.2691 105.738C65.1361 105.737 65.0037 105.719 64.8751 105.685C64.744 105.655 64.6196 105.6 64.5081 105.525C64.3938 105.446 64.2979 105.343 64.2271 105.224C64.1517 105.082 64.1148 104.923 64.1201 104.763C64.1201 104.523 64.1851 104.333 64.3141 104.195C64.4431 104.053 64.6121 103.946 64.8221 103.875C65.0311 103.799 65.2671 103.75 65.5291 103.728C65.7935 103.706 66.0588 103.695 66.3241 103.695V103.608ZM66.1711 104.149C66.0151 104.149 65.8521 104.155 65.6831 104.169C65.5181 104.182 65.3671 104.209 65.2291 104.249C65.1058 104.283 64.9917 104.345 64.8951 104.429C64.8506 104.469 64.8156 104.519 64.7924 104.575C64.7692 104.63 64.7586 104.69 64.7611 104.75C64.7586 104.831 64.7772 104.912 64.8151 104.984C64.8551 105.046 64.9061 105.097 64.9681 105.137C65.0311 105.177 65.1001 105.206 65.1751 105.224C65.2511 105.237 65.3291 105.244 65.4091 105.244C65.7031 105.244 65.9281 105.157 66.0841 104.984C66.2463 104.8 66.3321 104.561 66.3241 104.316V104.149H66.1711ZM69.4581 103.007H68.6171V104.656C68.6171 104.848 68.6521 104.986 68.7241 105.07C68.7941 105.151 68.9081 105.191 69.0641 105.191C69.1221 105.191 69.1841 105.184 69.2511 105.171C69.3134 105.158 69.3738 105.138 69.4311 105.111L69.4511 105.625C69.369 105.654 69.2843 105.674 69.1981 105.685C69.1081 105.703 69.0151 105.712 68.9181 105.712C68.6191 105.712 68.3901 105.629 68.2291 105.465C68.0731 105.3 67.9961 105.053 67.9961 104.723V103.007H67.3881V102.492H67.9961V101.584H68.6161V102.492H69.4581V103.007ZM70.7411 105.658H70.1141V102.492H70.7411V105.658ZM70.8481 101.35C70.8495 101.404 70.8388 101.458 70.8169 101.508C70.7949 101.557 70.7622 101.602 70.7211 101.637C70.682 101.674 70.6359 101.704 70.5855 101.723C70.535 101.743 70.4812 101.752 70.4271 101.751C70.3182 101.753 70.2128 101.712 70.1341 101.637C70.0956 101.6 70.0651 101.555 70.0444 101.506C70.0238 101.457 70.0135 101.404 70.0141 101.35C70.0141 101.234 70.0541 101.139 70.1341 101.063C70.1722 101.024 70.2179 100.993 70.2682 100.973C70.3186 100.952 70.3727 100.942 70.4271 100.943C70.4817 100.942 70.536 100.952 70.5865 100.973C70.6371 100.993 70.6829 101.024 70.7211 101.063C70.7621 101.099 70.7948 101.143 70.8168 101.192C70.8387 101.242 70.8494 101.296 70.8481 101.35ZM75.0411 104.069C75.0411 104.313 74.9971 104.538 74.9081 104.743C74.8264 104.944 74.7038 105.126 74.5481 105.277C74.3918 105.427 74.2077 105.545 74.0061 105.625C73.7961 105.705 73.5721 105.745 73.3321 105.745C73.0921 105.745 72.8661 105.705 72.6571 105.625C72.4559 105.545 72.2722 105.427 72.1161 105.277C71.9633 105.124 71.8411 104.942 71.7561 104.743C71.6694 104.529 71.6259 104.3 71.6281 104.069C71.625 103.84 71.6682 103.613 71.7551 103.401C71.8379 103.202 71.9607 103.022 72.1159 102.873C72.2711 102.723 72.4553 102.607 72.6571 102.532C72.8671 102.448 73.0911 102.405 73.3321 102.405C73.5721 102.405 73.7971 102.448 74.0061 102.532C74.2079 102.607 74.3921 102.723 74.5473 102.873C74.7024 103.022 74.8253 103.202 74.9081 103.401C74.9971 103.601 75.0411 103.824 75.0411 104.069ZM74.3871 104.069C74.3876 103.921 74.3626 103.774 74.3131 103.634C74.2477 103.426 74.1168 103.245 73.9401 103.117C73.7633 102.99 73.5501 102.923 73.3321 102.926C73.1839 102.92 73.0363 102.948 72.9008 103.008C72.7654 103.069 72.6457 103.16 72.5511 103.274C72.4595 103.38 72.3889 103.502 72.3431 103.634C72.2981 103.775 72.2755 103.921 72.2761 104.069C72.2761 104.22 72.2991 104.365 72.3431 104.503C72.3921 104.641 72.4611 104.763 72.5501 104.87C72.6449 104.984 72.7648 105.075 72.9004 105.135C73.0361 105.195 73.1838 105.223 73.3321 105.217C73.5011 105.217 73.6501 105.186 73.7791 105.124C73.9081 105.065 74.0222 104.979 74.1131 104.87C74.2028 104.762 74.2708 104.637 74.3131 104.503C74.3631 104.365 74.3871 104.22 74.3871 104.069ZM76.4801 102.492C76.4973 102.665 76.5064 102.839 76.5071 103.013H76.5271C76.5682 102.927 76.6222 102.848 76.6871 102.779C76.7581 102.704 76.8381 102.639 76.9271 102.586C77.0171 102.528 77.1141 102.483 77.2211 102.452C77.3281 102.421 77.4391 102.405 77.5551 102.405C77.7601 102.405 77.9351 102.441 78.0831 102.512C78.2247 102.575 78.3503 102.669 78.4507 102.787C78.5511 102.905 78.6237 103.044 78.6631 103.194C78.7131 103.349 78.7371 103.516 78.7371 103.695V105.658H78.1101V103.902C78.1101 103.772 78.0981 103.65 78.0761 103.534C78.0609 103.426 78.0245 103.321 77.9691 103.227C77.9155 103.138 77.8397 103.064 77.7491 103.013C77.638 102.956 77.514 102.928 77.3891 102.933C77.2715 102.93 77.1548 102.955 77.0482 103.005C76.9415 103.055 76.8477 103.128 76.7741 103.22C76.6181 103.407 76.5401 103.659 76.5401 103.975V105.658H75.9121V103.174C75.9106 102.946 75.9016 102.719 75.8851 102.492H76.4801Z" fill="white"/>
<path d="M27.77 64.786H94.23" stroke="white" stroke-width="0.687"/>
<path d="M59.9799 21.003L58.6979 20.668C58.6495 20.6561 58.5989 20.6577 58.5514 20.6727C58.504 20.6877 58.4616 20.7155 58.4289 20.753L56.2209 23.32C56.1791 23.3694 56.1536 23.4306 56.1479 23.495L55.8579 27.138C55.8528 27.2082 55.8727 27.2779 55.9139 27.335L57.9069 30.029C57.9384 30.0714 57.982 30.1034 58.0319 30.1207C58.0818 30.138 58.1358 30.1398 58.1869 30.126L59.9829 29.626C60.0375 29.6107 60.0856 29.5781 60.1199 29.5329C60.1542 29.4878 60.1728 29.4327 60.1729 29.376V21.253C60.1731 21.1958 60.1543 21.1401 60.1193 21.0949C60.0843 21.0496 60.0353 21.0172 59.9799 21.003ZM58.6939 21.131L59.4469 21.317L57.4119 22.614L58.6939 21.131ZM56.5589 23.777L59.4789 25.495L56.3159 26.835L56.5589 23.777ZM58.1889 29.66L56.6739 27.622L59.5789 29.285L58.1889 29.66ZM56.6939 27.135L59.7239 25.852V28.877L56.6939 27.135ZM59.7239 25.151L56.8739 23.469L59.7239 21.649V25.151ZM64.8419 23.32L62.6329 20.753C62.6001 20.7159 62.5579 20.6883 62.5106 20.6733C62.4634 20.6584 62.413 20.6565 62.3649 20.668L61.0819 21.003C61.0265 21.0172 60.9774 21.0496 60.9424 21.0949C60.9075 21.1401 60.8886 21.1958 60.8889 21.253V29.375C60.8889 29.491 60.9669 29.594 61.0799 29.625L62.8749 30.125C62.9259 30.1388 62.9799 30.137 63.0298 30.1197C63.0798 30.1024 63.1233 30.0704 63.1549 30.028L65.1489 27.334C65.1897 27.2767 65.2095 27.2072 65.2049 27.137L64.9149 23.494C64.9091 23.4296 64.8836 23.3694 64.8419 23.32ZM62.3679 21.13L63.6509 22.614L61.6159 21.317L62.3679 21.131V21.13ZM64.1869 23.47L61.3389 25.152V21.649L64.1869 23.47ZM61.3389 25.853L64.3669 27.136L61.3389 28.878V25.853ZM62.8729 29.661L61.4829 29.284L64.3869 27.622L62.8729 29.661ZM61.5829 25.496L64.5029 23.778L64.7459 26.837L61.5829 25.496ZM40.3909 33.864H42.6289C43.4959 33.864 44.3889 34.261 44.3889 35.307C44.3889 35.956 43.9839 36.385 43.3919 36.564V36.579C44.1129 36.676 44.6319 37.164 44.6319 37.933C44.6319 39.182 43.5459 39.603 42.4599 39.603H40.3899V33.863L40.3909 33.864ZM41.4129 36.199H42.3209C43.0019 36.199 43.3669 35.915 43.3669 35.421C43.3669 34.927 43.0019 34.707 42.2319 34.707H41.4129V36.199ZM41.4129 38.745H42.3289C42.8559 38.745 43.6099 38.64 43.6099 37.885C43.6099 37.285 43.1969 37.075 42.3699 37.075H41.4129V38.745ZM45.2399 35.713H46.1719V36.361H46.1879C46.3979 35.916 46.8119 35.599 47.3229 35.599C47.3959 35.599 47.4929 35.607 47.5579 35.623V36.516C47.4601 36.4892 47.3592 36.4757 47.2579 36.476C46.3829 36.476 46.2129 37.237 46.2129 37.521V39.604H45.2389V35.713H45.2399ZM50.2499 39.11H50.2259C50.0319 39.45 49.5689 39.702 49.0179 39.702C48.3929 39.702 47.5579 39.402 47.5579 38.494C47.5579 37.334 49.0179 37.172 50.2339 37.172V37.075C50.2339 36.597 49.8289 36.361 49.3409 36.361C48.9429 36.3687 48.563 36.5283 48.2789 36.807L47.7759 36.214C48.2129 35.81 48.8289 35.599 49.4209 35.599C50.8159 35.599 51.1559 36.459 51.1559 37.236V39.604H50.2479V39.11H50.2499ZM50.2349 37.829H50.0149C49.3999 37.829 48.5329 37.902 48.5329 38.477C48.5329 38.85 48.8809 38.963 49.2129 38.963C49.8779 38.963 50.2359 38.583 50.2359 37.966L50.2349 37.829ZM52.5599 33.808C52.9169 33.808 53.1929 34.059 53.1929 34.392C53.1929 34.725 52.9179 34.975 52.5609 34.975C52.4821 34.9774 52.4036 34.9642 52.3299 34.9362C52.2563 34.9081 52.1889 34.8658 52.1316 34.8116C52.0744 34.7574 52.0284 34.6925 51.9964 34.6204C51.9643 34.5484 51.9468 34.4708 51.9449 34.392C51.9469 34.3132 51.9645 34.2356 51.9966 34.1636C52.0287 34.0916 52.0746 34.0266 52.1319 33.9724C52.1891 33.9181 52.2564 33.8757 52.33 33.8475C52.4036 33.8193 52.4811 33.8059 52.5599 33.808ZM52.0819 35.713H53.0559V39.604H52.0819V35.713ZM54.0119 35.713H54.9359V36.336H54.9519C55.1219 35.947 55.5849 35.599 56.1599 35.599C57.1739 35.599 57.5949 36.377 57.5949 37.171V39.603H56.6209V37.446C56.6209 36.984 56.5159 36.408 55.8909 36.408C55.2669 36.408 54.9839 36.943 54.9839 37.462V39.602H54.0099V35.712L54.0119 35.713ZM61.2929 35.065C61.0739 34.78 60.6449 34.571 60.2399 34.571C59.7699 34.571 59.2259 34.797 59.2259 35.357C59.2259 35.883 59.6709 36.038 60.3199 36.24C61.0569 36.467 61.9979 36.791 61.9979 37.918C61.9979 39.151 61.0339 39.75 59.9059 39.75C59.1599 39.75 58.3899 39.466 57.9359 38.931L58.6649 38.25C58.9489 38.639 59.4679 38.883 59.9219 38.883C60.3999 38.883 60.9589 38.648 60.9589 38.031C60.9589 37.414 60.3589 37.261 59.6369 37.034C58.9399 36.815 58.1859 36.474 58.1859 35.404C58.1859 34.237 59.2479 33.718 60.2859 33.718C60.8609 33.718 61.5189 33.921 61.9559 34.334L61.2919 35.064L61.2929 35.065ZM62.1779 36.491V35.713H62.8589V34.586H63.8149V35.713H64.7889V36.491H63.8149V38.299C63.8149 38.648 63.8969 38.899 64.3259 38.899C64.4559 38.899 64.6259 38.874 64.7399 38.818L64.7729 39.581C64.5636 39.6507 64.3444 39.6858 64.1239 39.685C63.0939 39.685 62.8599 39.053 62.8599 38.307V36.491H62.1779ZM67.8439 39.11H67.8199C67.6239 39.45 67.1629 39.702 66.6119 39.702C65.9879 39.702 65.1519 39.402 65.1519 38.494C65.1519 37.334 66.6119 37.172 67.8269 37.172V37.075C67.8269 36.597 67.4229 36.361 66.9349 36.361C66.5209 36.361 66.1249 36.556 65.8739 36.807L65.3709 36.214C65.8079 35.81 66.4239 35.599 67.0159 35.599C68.4109 35.599 68.7509 36.459 68.7509 37.236V39.604H67.8429L67.8439 39.11ZM67.8289 37.829H67.6089C66.9939 37.829 66.1259 37.902 66.1259 38.477C66.1259 38.85 66.4759 38.963 66.8079 38.963C67.4719 38.963 67.8299 38.583 67.8299 37.966L67.8289 37.829ZM69.1349 36.491V35.713H69.8159V34.586H70.7729V35.713H71.7459V36.491H70.7729V38.299C70.7729 38.648 70.8529 38.899 71.2829 38.899C71.4129 38.899 71.5829 38.874 71.6979 38.818L71.7299 39.581C71.5209 39.6506 71.3021 39.6857 71.0819 39.685C70.0519 39.685 69.8169 39.053 69.8169 38.307V36.491H69.1349ZM72.9529 33.808C73.3089 33.808 73.5859 34.059 73.5859 34.392C73.5859 34.725 73.3109 34.975 72.9529 34.975C72.8741 34.9774 72.7956 34.9642 72.7219 34.9362C72.6483 34.9081 72.5809 34.8658 72.5236 34.8116C72.4664 34.7574 72.4204 34.6925 72.3884 34.6204C72.3563 34.5484 72.3388 34.4708 72.3369 34.392C72.3389 34.3132 72.3565 34.2356 72.3886 34.1636C72.4207 34.0916 72.4666 34.0266 72.5238 33.9724C72.5811 33.9181 72.6484 33.8757 72.722 33.8475C72.7956 33.8193 72.8741 33.8059 72.9529 33.808ZM72.4749 35.713H73.4479V39.604H72.4749V35.713ZM76.1639 35.6C77.3399 35.6 78.2799 36.419 78.2799 37.642C78.2799 38.866 77.3399 39.718 76.1639 39.718C74.9889 39.718 74.0479 38.866 74.0479 37.642C74.0479 36.418 74.9879 35.6 76.1639 35.6ZM76.1639 38.908C76.9339 38.908 77.2909 38.251 77.2909 37.644C77.2909 37.036 76.9349 36.394 76.1639 36.394C75.3939 36.394 75.0369 37.036 75.0369 37.644C75.0369 38.251 75.3939 38.908 76.1639 38.908ZM78.8799 35.713H79.8039V36.336H79.8199C79.9899 35.947 80.4529 35.599 81.0279 35.599C82.0419 35.599 82.4629 36.377 82.4629 37.171V39.603H81.4889V37.446C81.4889 36.984 81.3839 36.408 80.7589 36.408C80.1349 36.408 79.8519 36.943 79.8519 37.462V39.602H78.8779V35.712L78.8799 35.713ZM82.8739 35.14C82.8735 35.0409 82.894 34.9428 82.9339 34.852C82.9703 34.7645 83.0241 34.6853 83.0919 34.619C83.232 34.4832 83.4187 34.406 83.6139 34.403C83.7159 34.403 83.8119 34.423 83.9019 34.462C84.0784 34.5369 84.2197 34.6764 84.2969 34.852C84.3547 34.9868 84.3704 35.1359 84.3419 35.2798C84.3133 35.4237 84.2418 35.5555 84.1369 35.658C83.9972 35.7949 83.8094 35.8716 83.6139 35.8716C83.4183 35.8716 83.2305 35.7949 83.0909 35.658C83.0224 35.5902 82.968 35.5096 82.9309 35.4206C82.8939 35.3317 82.8738 35.2363 82.8739 35.14ZM82.9909 35.14C82.9904 35.2217 83.0062 35.3026 83.0372 35.3781C83.0683 35.4537 83.1141 35.5223 83.1719 35.58C83.2293 35.6389 83.2981 35.6854 83.3741 35.7169C83.4501 35.7483 83.5316 35.764 83.6139 35.763C83.6963 35.7642 83.778 35.7485 83.8542 35.7171C83.9303 35.6856 83.9993 35.639 84.0569 35.58C84.1132 35.5221 84.1583 35.4543 84.1899 35.38C84.2538 35.225 84.2538 35.051 84.1899 34.896C84.1426 34.7826 84.0625 34.6859 83.9599 34.6184C83.8572 34.5508 83.7367 34.5155 83.6139 34.517C83.5317 34.5158 83.4502 34.5314 83.3742 34.5627C83.2982 34.5939 83.2294 34.6403 83.1719 34.699C83.0562 34.8163 82.9913 34.9753 82.9909 35.14ZM83.3249 34.721H83.6169C83.6549 34.721 83.6929 34.726 83.7309 34.734C83.7679 34.743 83.8009 34.756 83.8299 34.775C83.8599 34.795 83.8819 34.819 83.8999 34.85C83.9182 34.8851 83.9272 34.9244 83.9259 34.964C83.9283 35.0182 83.9097 35.0712 83.8739 35.112C83.8362 35.1512 83.7873 35.1778 83.7339 35.188L83.9569 35.552H83.7759L83.5819 35.204H83.4749V35.552H83.3249V34.721ZM83.5949 35.085C83.6368 35.0852 83.6784 35.0767 83.7169 35.06C83.7549 35.044 83.7759 35.01 83.7759 34.96C83.7759 34.915 83.7579 34.885 83.7219 34.87C83.6864 34.8551 83.6483 34.8473 83.6099 34.847H83.4729V35.083H83.5929L83.5949 35.085ZM39.9499 55.502C39.6799 55.867 39.3299 56.165 38.8999 56.396C38.4709 56.62 37.9549 56.733 37.3529 56.733C36.8329 56.733 36.3529 56.646 35.9099 56.473C35.4871 56.3023 35.1016 56.051 34.7749 55.733C34.4569 55.4063 34.2056 55.0208 34.0349 54.598C33.8513 54.1358 33.7596 53.6423 33.7649 53.145C33.7649 52.613 33.8549 52.129 34.0349 51.693C34.208 51.2697 34.4667 50.8866 34.7949 50.568C35.1271 50.2508 35.519 50.0026 35.9479 49.838C36.3909 49.664 36.8719 49.578 37.3909 49.578C37.6209 49.578 37.8559 49.6 38.0929 49.645C38.3299 49.69 38.5579 49.757 38.7759 49.847C38.988 49.9333 39.1882 50.0462 39.3719 50.183C39.5519 50.312 39.7059 50.463 39.8339 50.635L39.0839 51.212C38.8981 50.966 38.6532 50.7709 38.3719 50.645C38.068 50.4908 37.7316 50.4119 37.3909 50.415C36.9929 50.415 36.6339 50.488 36.3139 50.635C36.0061 50.7714 35.7307 50.9715 35.5059 51.222C35.2819 51.472 35.1079 51.764 34.9859 52.097C34.8628 52.4326 34.8012 52.7876 34.8039 53.145C34.8039 53.53 34.8619 53.889 34.9769 54.223C35.0989 54.556 35.2689 54.848 35.4869 55.098C35.7109 55.341 35.9799 55.534 36.2949 55.675C36.6149 55.815 36.9709 55.886 37.3619 55.886C37.7469 55.886 38.0959 55.809 38.4099 55.656C38.7249 55.502 38.9839 55.277 39.1899 54.982L39.9499 55.502ZM42.9299 55.713H46.4889V56.56H41.9789V49.75H46.3449V50.587H42.9299V52.627H46.1419V53.444H42.9299V55.713ZM49.7639 56.56H48.8119V49.75H50.9949C51.3089 49.7486 51.6221 49.7842 51.9279 49.856C52.2229 49.92 52.4799 50.026 52.6979 50.174C52.9219 50.321 53.0979 50.517 53.2269 50.76C53.3549 50.998 53.4189 51.29 53.4189 51.636C53.4189 52.136 53.2649 52.54 52.9569 52.847C52.6499 53.155 52.2519 53.351 51.7649 53.434L53.6689 56.56H52.5149L50.7839 53.53H49.7639V56.56ZM49.7639 52.732H50.8609C51.0849 52.732 51.2939 52.712 51.4859 52.674C51.6779 52.636 51.8449 52.574 51.9859 52.492C52.1329 52.402 52.2489 52.289 52.3319 52.155C52.4159 52.014 52.4569 51.841 52.4569 51.635C52.4638 51.4566 52.4205 51.2799 52.3319 51.125C52.2505 50.9861 52.1348 50.8704 51.9959 50.789C51.8482 50.7009 51.6848 50.6421 51.5149 50.616C51.3217 50.577 51.125 50.5579 50.9279 50.559H49.7639V52.732ZM58.0499 56.56H57.0979V50.587H54.9149V49.751H60.2329V50.587H58.0499V56.56ZM63.1499 56.56H62.1979V49.75H63.1499V56.56ZM66.8199 56.56H65.8669V49.75H70.1169V50.587H66.8199V52.703H69.9069V53.52H66.8199V56.56ZM73.3429 56.56H72.3909V49.75H73.3429V56.56ZM77.0119 55.713H80.5699V56.56H76.0599V49.75H80.4259V50.587H77.0119V52.627H80.2239V53.444H77.0119V55.713ZM82.8939 49.751H85.2309C85.6669 49.751 86.1019 49.815 86.5379 49.943C86.9739 50.071 87.3679 50.273 87.7209 50.549C88.081 50.8339 88.3734 51.1953 88.5769 51.607C88.7949 52.037 88.9039 52.552 88.9039 53.155C88.9039 53.739 88.7949 54.245 88.5769 54.675C88.37 55.0845 88.0782 55.4452 87.7209 55.733C87.3666 56.0096 86.966 56.2212 86.5379 56.358C86.1148 56.4906 85.6742 56.5587 85.2309 56.56H82.8939V49.751ZM83.8459 55.723H85.0379C85.4479 55.723 85.8269 55.665 86.1729 55.55C86.5259 55.434 86.8269 55.268 87.0769 55.05C87.3329 54.832 87.5319 54.562 87.6729 54.242C87.8187 53.8985 87.8909 53.5282 87.8849 53.155C87.8849 52.732 87.8149 52.36 87.6729 52.039C87.5401 51.7296 87.3359 51.4561 87.0769 51.241C86.8134 51.0159 86.5053 50.8489 86.1729 50.751C85.8063 50.6325 85.4231 50.5741 85.0379 50.578H83.8459V55.723Z" fill="white"/>
</svg>
